<?xml version="1.0" encoding="UTF-8" standalone="no"?>
<!DOCTYPE svg PUBLIC "-//W3C//DTD SVG 1.1//EN"
 "http://www.w3.org/Graphics/SVG/1.1/DTD/svg11.dtd">
<!-- Generated by graphviz version 2.40.1 (20161225.0304)
 -->
<!-- Title: %3 Pages: 1 -->
<svg width="315pt" height="1097pt"
 viewBox="0.00 0.00 315.31 1097.00" xmlns="http://www.w3.org/2000/svg" xmlns:xlink="http://www.w3.org/1999/xlink">
<g id="graph0" class="graph" transform="scale(1 1) rotate(0) translate(4 1093)">
<title>%3</title>
<polygon fill="#ffffff" stroke="transparent" points="-4,4 -4,-1093 311.3082,-1093 311.3082,4 -4,4"/>
<!-- USER -->
<g id="node1" class="node">
<title>USER</title>
<polygon fill="#ffffff" stroke="#000000" points="307.3082,-279 253.3082,-279 253.3082,-243 307.3082,-243 307.3082,-279"/>
<text text-anchor="middle" x="280.3082" y="-258.5" font-family="Courier,monospace" font-size="10.00" fill="#000000">USER</text>
</g>
<!-- USER_IdUser -->
<g id="node2" class="node">
<title>USER_IdUser</title>
<ellipse fill="#ffffff" stroke="#000000" cx="175.5131" cy="-477" rx="31.3996" ry="18"/>
<text text-anchor="start" x="157.0131" y="-475.5" font-family="Courier,monospace" text-decoration="underline" font-size="10.00" fill="#000000">IdUser</text>
</g>
<!-- USER_IdUser&#45;&#45;USER -->
<g id="edge1" class="edge">
<title>USER_IdUser&#45;&#45;USER</title>
<path fill="none" stroke="#000000" d="M199.4343,-465.4154C205.9646,-461.3055 212.5446,-456.1443 217.3082,-450 258.5271,-396.8343 273.4789,-315.3564 278.284,-279.2772"/>
</g>
<!-- USER_Name -->
<g id="node3" class="node">
<title>USER_Name</title>
<ellipse fill="#ffffff" stroke="#000000" cx="175.5131" cy="-423" rx="27" ry="18"/>
<text text-anchor="middle" x="175.5131" y="-420.5" font-family="Courier,monospace" font-size="10.00" fill="#000000">Name</text>
</g>
<!-- USER_Name&#45;&#45;USER -->
<g id="edge2" class="edge">
<title>USER_Name&#45;&#45;USER</title>
<path fill="none" stroke="#000000" d="M197.2662,-412.1336C204.317,-407.8341 211.7456,-402.3817 217.3082,-396 248.2382,-360.5155 267.0318,-307.2522 275.3125,-279.4243"/>
</g>
<!-- USER_Email -->
<g id="node4" class="node">
<title>USER_Email</title>
<ellipse fill="#ffffff" stroke="#000000" cx="175.5131" cy="-369" rx="27.8353" ry="18"/>
<text text-anchor="middle" x="175.5131" y="-366.5" font-family="Courier,monospace" font-size="10.00" fill="#000000">Email</text>
</g>
<!-- USER_Email&#45;&#45;USER -->
<g id="edge3" class="edge">
<title>USER_Email&#45;&#45;USER</title>
<path fill="none" stroke="#000000" d="M196.9182,-357.1078C203.7873,-352.7994 211.1934,-347.602 217.3082,-342 238.0631,-322.9856 257.1967,-296.5876 268.8043,-279.163"/>
</g>
<!-- USER_Birthdate -->
<g id="node5" class="node">
<title>USER_Birthdate</title>
<ellipse fill="#ffffff" stroke="#000000" cx="175.5131" cy="-315" rx="41.5911" ry="18"/>
<text text-anchor="middle" x="175.5131" y="-312.5" font-family="Courier,monospace" font-size="10.00" fill="#000000">Birthdate</text>
</g>
<!-- USER_Birthdate&#45;&#45;USER -->
<g id="edge4" class="edge">
<title>USER_Birthdate&#45;&#45;USER</title>
<path fill="none" stroke="#000000" d="M202.5005,-301.0937C218.0255,-293.0937 237.4774,-283.0703 253.0481,-275.0469"/>
</g>
<!-- USER_Joined -->
<g id="node6" class="node">
<title>USER_Joined</title>
<ellipse fill="#ffffff" stroke="#000000" cx="175.5131" cy="-261" rx="31.3996" ry="18"/>
<text text-anchor="middle" x="175.5131" y="-258.5" font-family="Courier,monospace" font-size="10.00" fill="#000000">Joined</text>
</g>
<!-- USER_Joined&#45;&#45;USER -->
<g id="edge5" class="edge">
<title>USER_Joined&#45;&#45;USER</title>
<path fill="none" stroke="#000000" d="M206.9551,-261C221.6656,-261 239.0146,-261 253.1462,-261"/>
</g>
<!-- USER_Sex -->
<g id="node7" class="node">
<title>USER_Sex</title>
<ellipse fill="#ffffff" stroke="#000000" cx="175.5131" cy="-207" rx="27" ry="18"/>
<text text-anchor="middle" x="175.5131" y="-204.5" font-family="Courier,monospace" font-size="10.00" fill="#000000">Sex</text>
</g>
<!-- USER_Sex&#45;&#45;USER -->
<g id="edge6" class="edge">
<title>USER_Sex&#45;&#45;USER</title>
<path fill="none" stroke="#000000" d="M196.9728,-218.058C213.2605,-226.4509 235.762,-238.0457 253.2783,-247.0717"/>
</g>
<!-- USER_Age -->
<g id="node8" class="node">
<title>USER_Age</title>
<ellipse fill="none" stroke="#000000" stroke-dasharray="5,2" cx="175.5131" cy="-153" rx="27" ry="18"/>
<text text-anchor="middle" x="175.5131" y="-150.5" font-family="Courier,monospace" font-size="10.00" fill="#000000">Age</text>
</g>
<!-- USER_Age&#45;&#45;USER -->
<g id="edge7" class="edge">
<title>USER_Age&#45;&#45;USER</title>
<path fill="none" stroke="#000000" d="M196.4896,-164.6241C203.4781,-168.9843 211.066,-174.2813 217.3082,-180 238.0631,-199.0144 257.1967,-225.4124 268.8043,-242.837"/>
</g>
<!-- USER_Phone -->
<g id="node9" class="node">
<title>USER_Phone</title>
<ellipse fill="#ffffff" stroke="#000000" cx="175.5131" cy="-99" rx="34.9638" ry="18"/>
<text text-anchor="middle" x="175.5131" y="-96.5" font-family="Courier,monospace" font-size="10.00" fill="#000000">Phone ?</text>
</g>
<!-- USER_Phone&#45;&#45;USER -->
<g id="edge8" class="edge">
<title>USER_Phone&#45;&#45;USER</title>
<path fill="none" stroke="#000000" d="M200.3046,-111.779C206.4014,-115.7427 212.5402,-120.53 217.3082,-126 248.2382,-161.4845 267.0318,-214.7478 275.3125,-242.5757"/>
</g>
<!-- USER_Payment -->
<g id="node10" class="node">
<title>USER_Payment</title>
<ellipse fill="#ffffff" stroke="#000000" cx="175.5131" cy="-45" rx="34.9638" ry="18"/>
<text text-anchor="middle" x="175.5131" y="-42.5" font-family="Courier,monospace" font-size="10.00" fill="#000000">Payment</text>
</g>
<!-- USER_Payment&#45;&#45;USER -->
<g id="edge9" class="edge">
<title>USER_Payment&#45;&#45;USER</title>
<path fill="none" stroke="#000000" d="M200.7405,-57.4205C206.8339,-61.387 212.8621,-66.2653 217.3082,-72 258.5271,-125.1657 273.4789,-206.6436 278.284,-242.7228"/>
</g>
<!-- USER_Payment_Method -->
<g id="node11" class="node">
<title>USER_Payment_Method</title>
<ellipse fill="#ffffff" stroke="#000000" cx="48.859" cy="-72" rx="31.3996" ry="18"/>
<text text-anchor="middle" x="48.859" y="-69.5" font-family="Courier,monospace" font-size="10.00" fill="#000000">Method</text>
</g>
<!-- USER_Payment_Method&#45;&#45;USER_Payment -->
<g id="edge10" class="edge">
<title>USER_Payment_Method&#45;&#45;USER_Payment</title>
<path fill="none" stroke="#000000" d="M78.2344,-65.7378C97.6726,-61.594 123.17,-56.1584 143.1842,-51.8918"/>
</g>
<!-- USER_Payment_PaymentDate -->
<g id="node12" class="node">
<title>USER_Payment_PaymentDate</title>
<ellipse fill="#ffffff" stroke="#000000" cx="48.859" cy="-18" rx="48.7185" ry="18"/>
<text text-anchor="middle" x="48.859" y="-15.5" font-family="Courier,monospace" font-size="10.00" fill="#000000">PaymentDate</text>
</g>
<!-- USER_Payment_PaymentDate&#45;&#45;USER_Payment -->
<g id="edge11" class="edge">
<title>USER_Payment_PaymentDate&#45;&#45;USER_Payment</title>
<path fill="none" stroke="#000000" d="M91.3853,-27.0657C108.3452,-30.6812 127.5443,-34.7741 143.3149,-38.136"/>
</g>
<!-- ARTIST -->
<g id="node13" class="node">
<title>ARTIST</title>
<polygon fill="#ffffff" stroke="#000000" points="202.5131,-549 148.5131,-549 148.5131,-513 202.5131,-513 202.5131,-549"/>
<text text-anchor="middle" x="175.5131" y="-528.5" font-family="Courier,monospace" font-size="10.00" fill="#000000">ARTIST</text>
</g>
<!-- ARTIST_IdArtist -->
<g id="node14" class="node">
<title>ARTIST_IdArtist</title>
<ellipse fill="#ffffff" stroke="#000000" cx="48.859" cy="-585" rx="38.0276" ry="18"/>
<text text-anchor="start" x="24.359" y="-583.5" font-family="Courier,monospace" text-decoration="underline" font-size="10.00" fill="#000000">IdArtist</text>
</g>
<!-- ARTIST_IdArtist&#45;&#45;ARTIST -->
<g id="edge12" class="edge">
<title>ARTIST_IdArtist&#45;&#45;ARTIST</title>
<path fill="none" stroke="#000000" d="M77.2827,-572.8813C98.5792,-563.8014 127.5344,-551.4561 148.4859,-542.5233"/>
</g>
<!-- ARTIST_Name -->
<g id="node15" class="node">
<title>ARTIST_Name</title>
<ellipse fill="#ffffff" stroke="#000000" cx="48.859" cy="-531" rx="27" ry="18"/>
<text text-anchor="middle" x="48.859" y="-528.5" font-family="Courier,monospace" font-size="10.00" fill="#000000">Name</text>
</g>
<!-- ARTIST_Name&#45;&#45;ARTIST -->
<g id="edge13" class="edge">
<title>ARTIST_Name&#45;&#45;ARTIST</title>
<path fill="none" stroke="#000000" d="M76.0295,-531C97.3991,-531 127.0295,-531 148.3876,-531"/>
</g>
<!-- ARTIST_Genre -->
<g id="node16" class="node">
<title>ARTIST_Genre</title>
<ellipse fill="#ffffff" stroke="#000000" cx="48.859" cy="-473" rx="27.814" ry="18"/>
<ellipse fill="none" stroke="#000000" cx="48.859" cy="-473" rx="31.8352" ry="22"/>
<text text-anchor="middle" x="48.859" y="-470.5" font-family="Courier,monospace" font-size="10.00" fill="#000000">Genre</text>
</g>
<!-- ARTIST_Genre&#45;&#45;ARTIST -->
<g id="edge14" class="edge">
<title>ARTIST_Genre&#45;&#45;ARTIST</title>
<path fill="none" stroke="#000000" d="M75.4099,-485.1587C96.7358,-494.9247 126.577,-508.5902 148.1225,-518.4567"/>
</g>
<!-- PLAYLIST -->
<g id="node17" class="node">
<title>PLAYLIST</title>
<polygon fill="#ffffff" stroke="#000000" points="208.0131,-711 143.0131,-711 143.0131,-675 208.0131,-675 208.0131,-711"/>
<text text-anchor="middle" x="175.5131" y="-690.5" font-family="Courier,monospace" font-size="10.00" fill="#000000">PLAYLIST</text>
</g>
<!-- PLAYLIST_IdPlaylist -->
<g id="node18" class="node">
<title>PLAYLIST_IdPlaylist</title>
<ellipse fill="#ffffff" stroke="#000000" cx="48.859" cy="-747" rx="45.1548" ry="18"/>
<text text-anchor="start" x="18.359" y="-745.5" font-family="Courier,monospace" text-decoration="underline" font-size="10.00" fill="#000000">IdPlaylist</text>
</g>
<!-- PLAYLIST_IdPlaylist&#45;&#45;PLAYLIST -->
<g id="edge15" class="edge">
<title>PLAYLIST_IdPlaylist&#45;&#45;PLAYLIST</title>
<path fill="none" stroke="#000000" d="M79.8421,-733.7901C98.8829,-725.6719 123.2564,-715.2801 142.6365,-707.0172"/>
</g>
<!-- PLAYLIST_Name -->
<g id="node19" class="node">
<title>PLAYLIST_Name</title>
<ellipse fill="#ffffff" stroke="#000000" cx="48.859" cy="-693" rx="27" ry="18"/>
<text text-anchor="middle" x="48.859" y="-690.5" font-family="Courier,monospace" font-size="10.00" fill="#000000">Name</text>
</g>
<!-- PLAYLIST_Name&#45;&#45;PLAYLIST -->
<g id="edge16" class="edge">
<title>PLAYLIST_Name&#45;&#45;PLAYLIST</title>
<path fill="none" stroke="#000000" d="M76.0295,-693C95.6547,-693 122.247,-693 143.0006,-693"/>
</g>
<!-- PLAYLIST_IdLibrary -->
<g id="node20" class="node">
<title>PLAYLIST_IdLibrary</title>
<ellipse fill="#ffffff" stroke="#000000" cx="48.859" cy="-639" rx="41.5911" ry="18"/>
<text text-anchor="middle" x="48.859" y="-636.5" font-family="Courier,monospace" font-size="10.00" fill="#000000">IdLibrary</text>
</g>
<!-- PLAYLIST_IdLibrary&#45;&#45;PLAYLIST -->
<g id="edge17" class="edge">
<title>PLAYLIST_IdLibrary&#45;&#45;PLAYLIST</title>
<path fill="none" stroke="#000000" d="M78.8743,-651.7972C98.0398,-659.9686 122.8961,-670.5663 142.6004,-678.9674"/>
</g>
<!-- MUSIC -->
<g id="node21" class="node">
<title>MUSIC</title>
<polygon fill="#ffffff" stroke="#000000" points="202.5131,-900 148.5131,-900 148.5131,-864 202.5131,-864 202.5131,-900"/>
<text text-anchor="middle" x="175.5131" y="-879.5" font-family="Courier,monospace" font-size="10.00" fill="#000000">MUSIC</text>
</g>
<!-- MUSIC_IdMusic -->
<g id="node22" class="node">
<title>MUSIC_IdMusic</title>
<ellipse fill="#ffffff" stroke="#000000" cx="48.859" cy="-963" rx="34.9638" ry="18"/>
<text text-anchor="start" x="27.359" y="-961.5" font-family="Courier,monospace" text-decoration="underline" font-size="10.00" fill="#000000">IdMusic</text>
</g>
<!-- MUSIC_IdMusic&#45;&#45;MUSIC -->
<g id="edge18" class="edge">
<title>MUSIC_IdMusic&#45;&#45;MUSIC</title>
<path fill="none" stroke="#000000" d="M73.2464,-950.1592C81.1523,-945.8285 89.897,-940.8579 97.718,-936 115.874,-924.7228 135.6516,-910.9738 150.722,-900.1716"/>
</g>
<!-- MUSIC_Name -->
<g id="node23" class="node">
<title>MUSIC_Name</title>
<ellipse fill="#ffffff" stroke="#000000" cx="48.859" cy="-909" rx="27" ry="18"/>
<text text-anchor="middle" x="48.859" y="-906.5" font-family="Courier,monospace" font-size="10.00" fill="#000000">Name</text>
</g>
<!-- MUSIC_Name&#45;&#45;MUSIC -->
<g id="edge19" class="edge">
<title>MUSIC_Name&#45;&#45;MUSIC</title>
<path fill="none" stroke="#000000" d="M74.795,-903.471C96.217,-898.9043 126.5327,-892.4416 148.2989,-887.8015"/>
</g>
<!-- MUSIC_Album -->
<g id="node24" class="node">
<title>MUSIC_Album</title>
<ellipse fill="#ffffff" stroke="#000000" cx="48.859" cy="-855" rx="34.9638" ry="18"/>
<text text-anchor="middle" x="48.859" y="-852.5" font-family="Courier,monospace" font-size="10.00" fill="#000000">Album ?</text>
</g>
<!-- MUSIC_Album&#45;&#45;MUSIC -->
<g id="edge20" class="edge">
<title>MUSIC_Album&#45;&#45;MUSIC</title>
<path fill="none" stroke="#000000" d="M81.1469,-861.8831C101.9612,-866.3203 128.7191,-872.0245 148.4228,-876.2249"/>
</g>
<!-- MUSIC_IdArtist -->
<g id="node25" class="node">
<title>MUSIC_IdArtist</title>
<ellipse fill="#ffffff" stroke="#000000" cx="48.859" cy="-801" rx="38.0276" ry="18"/>
<text text-anchor="middle" x="48.859" y="-798.5" font-family="Courier,monospace" font-size="10.00" fill="#000000">IdArtist</text>
</g>
<!-- MUSIC_IdArtist&#45;&#45;MUSIC -->
<g id="edge21" class="edge">
<title>MUSIC_IdArtist&#45;&#45;MUSIC</title>
<path fill="none" stroke="#000000" d="M74.5014,-814.5298C82.0702,-818.6944 90.3087,-823.3978 97.718,-828 115.874,-839.2772 135.6516,-853.0262 150.722,-863.8284"/>
</g>
<!-- LIBRARY -->
<g id="node26" class="node">
<title>LIBRARY</title>
<polygon fill="#ffffff" stroke="#000000" points="205.0131,-1062 146.0131,-1062 146.0131,-1026 205.0131,-1026 205.0131,-1062"/>
<text text-anchor="middle" x="175.5131" y="-1041.5" font-family="Courier,monospace" font-size="10.00" fill="#000000">LIBRARY</text>
</g>
<!-- LIBRARY_IdLibrary -->
<g id="node27" class="node">
<title>LIBRARY_IdLibrary</title>
<ellipse fill="#ffffff" stroke="#000000" cx="48.859" cy="-1071" rx="41.5911" ry="18"/>
<text text-anchor="start" x="21.359" y="-1069.5" font-family="Courier,monospace" text-decoration="underline" font-size="10.00" fill="#000000">IdLibrary</text>
</g>
<!-- LIBRARY_IdLibrary&#45;&#45;LIBRARY -->
<g id="edge22" class="edge">
<title>LIBRARY_IdLibrary&#45;&#45;LIBRARY</title>
<path fill="none" stroke="#000000" d="M86.5165,-1062.9722C105.4753,-1058.9306 128.1289,-1054.1013 145.8359,-1050.3266"/>
</g>
<!-- LIBRARY_IdUser -->
<g id="node28" class="node">
<title>LIBRARY_IdUser</title>
<ellipse fill="#ffffff" stroke="#000000" cx="48.859" cy="-1017" rx="31.3996" ry="18"/>
<text text-anchor="middle" x="48.859" y="-1014.5" font-family="Courier,monospace" font-size="10.00" fill="#000000">IdUser</text>
</g>
<!-- LIBRARY_IdUser&#45;&#45;LIBRARY -->
<g id="edge23" class="edge">
<title>LIBRARY_IdUser&#45;&#45;LIBRARY</title>
<path fill="none" stroke="#000000" d="M78.2344,-1023.2622C98.5495,-1027.593 125.4829,-1033.3346 145.8583,-1037.6782"/>
</g>
</g>
</svg>
