<?xml version="1.0" encoding="UTF-8" standalone="no"?>
<!DOCTYPE svg PUBLIC "-//W3C//DTD SVG 1.1//EN"
 "http://www.w3.org/Graphics/SVG/1.1/DTD/svg11.dtd">
<!-- Generated by graphviz version 2.40.1 (20161225.0304)
 -->
<!-- Title: %3 Pages: 1 -->
<svg width="955pt" height="204pt"
 viewBox="0.00 0.00 955.19 204.00" xmlns="http://www.w3.org/2000/svg" xmlns:xlink="http://www.w3.org/1999/xlink">
<g id="graph0" class="graph" transform="scale(1 1) rotate(0) translate(4 200)">
<title>%3</title>
<polygon fill="#ffffff" stroke="transparent" points="-4,4 -4,-200 951.1922,-200 951.1922,4 -4,4"/>
<!-- USER -->
<g id="node1" class="node">
<title>USER</title>
<polygon fill="#ffffff" stroke="#000000" points="54,-116 0,-116 0,-80 54,-80 54,-116"/>
<text text-anchor="middle" x="27" y="-95.5" font-family="Courier,monospace" font-size="10.00" fill="#000000">USER</text>
</g>
<!-- LISTENS -->
<g id="node6" class="node">
<title>LISTENS</title>
<polygon fill="#ffffff" stroke="#000000" points="262.3516,-196 213.1169,-178 262.3516,-160 311.5863,-178 262.3516,-196"/>
<text text-anchor="middle" x="262.3516" y="-175.5" font-family="Courier,monospace" font-size="10.00" fill="#000000">LISTENS</text>
</g>
<!-- USER&#45;&#45;LISTENS -->
<g id="edge1" class="edge">
<title>USER&#45;&#45;LISTENS</title>
<path fill="none" stroke="#000000" d="M42.2098,-116.2668C55.1881,-130.4849 75.1738,-149.3679 97,-159 135.5965,-176.033 183.9505,-179.8176 218.3787,-179.9252"/>
<text text-anchor="middle" x="75.5" y="-151" font-family="Courier,monospace" font-size="10.00" fill="#000000">M</text>
</g>
<!-- HAS -->
<g id="node7" class="node">
<title>HAS</title>
<polygon fill="#ffffff" stroke="#000000" points="146.1172,-150 116.8419,-132 146.1172,-114 175.3925,-132 146.1172,-150"/>
<text text-anchor="middle" x="146.1172" y="-129.5" font-family="Courier,monospace" font-size="10.00" fill="#000000">HAS</text>
</g>
<!-- USER&#45;&#45;HAS -->
<g id="edge3" class="edge">
<title>USER&#45;&#45;HAS</title>
<path fill="none" stroke="#000000" d="M54.5785,-103.7919C76.4066,-110.0224 106.6436,-118.653 126.4237,-124.2989"/>
<path fill="none" stroke="transparent" d="M54.0295,-105.7151C75.8576,-111.9456 106.0946,-120.5762 125.8748,-126.2221"/>
<path fill="none" stroke="#000000" d="M53.4806,-107.6383C75.3087,-113.8688 105.5457,-122.4994 125.3258,-128.1453"/>
<text text-anchor="middle" x="75.5" y="-114" font-family="Courier,monospace" font-size="10.00" fill="#000000">1</text>
</g>
<!-- FOLLOWS -->
<g id="node9" class="node">
<title>FOLLOWS</title>
<polygon fill="#ffffff" stroke="#000000" points="146.1172,-96 96.8825,-78 146.1172,-60 195.3519,-78 146.1172,-96"/>
<text text-anchor="middle" x="146.1172" y="-75.5" font-family="Courier,monospace" font-size="10.00" fill="#000000">FOLLOWS</text>
</g>
<!-- USER&#45;&#45;FOLLOWS -->
<g id="edge7" class="edge">
<title>USER&#45;&#45;FOLLOWS</title>
<path fill="none" stroke="#000000" d="M54.0295,-93.4617C71.3273,-90.5574 93.9056,-86.7664 112.3762,-83.6652"/>
<text text-anchor="middle" x="75.5" y="-93" font-family="Courier,monospace" font-size="10.00" fill="#000000">M</text>
</g>
<!-- HEARS -->
<g id="node12" class="node">
<title>HEARS</title>
<polygon fill="#ffffff" stroke="#000000" points="445.5961,-63 406.3412,-45 445.5961,-27 484.8511,-45 445.5961,-63"/>
<text text-anchor="middle" x="445.5961" y="-42.5" font-family="Courier,monospace" font-size="10.00" fill="#000000">HEARS</text>
</g>
<!-- USER&#45;&#45;HEARS -->
<g id="edge13" class="edge">
<title>USER&#45;&#45;HEARS</title>
<path fill="none" stroke="#000000" d="M42.1309,-79.9707C55.0635,-66.0683 75.026,-47.9207 97,-40 211.4498,1.2543 361.0768,-25.3559 420.0869,-38.6942"/>
<text text-anchor="middle" x="146.1172" y="-43" font-family="Courier,monospace" font-size="10.00" fill="#000000">M</text>
</g>
<!-- PLAYLIST -->
<g id="node2" class="node">
<title>PLAYLIST</title>
<polygon fill="#ffffff" stroke="#000000" points="698.9679,-150 633.9679,-150 633.9679,-114 698.9679,-114 698.9679,-150"/>
<text text-anchor="middle" x="666.4679" y="-129.5" font-family="Courier,monospace" font-size="10.00" fill="#000000">PLAYLIST</text>
</g>
<!-- CONTAINS -->
<g id="node10" class="node">
<title>CONTAINS</title>
<polygon fill="#ffffff" stroke="#000000" points="796.0801,-136 741.8555,-118 796.0801,-100 850.3047,-118 796.0801,-136"/>
<text text-anchor="middle" x="796.0801" y="-115.5" font-family="Courier,monospace" font-size="10.00" fill="#000000">CONTAINS</text>
</g>
<!-- PLAYLIST&#45;&#45;CONTAINS -->
<g id="edge9" class="edge">
<title>PLAYLIST&#45;&#45;CONTAINS</title>
<path fill="none" stroke="#000000" d="M698.9597,-126.4788C715.9082,-124.6481 736.7754,-122.3941 754.7995,-120.4473"/>
<path fill="none" stroke="transparent" d="M699.1745,-128.4672C716.123,-126.6365 736.9902,-124.3826 755.0143,-122.4357"/>
<path fill="none" stroke="#000000" d="M699.3893,-130.4556C716.3378,-128.625 737.2049,-126.371 755.2291,-124.4241"/>
<text text-anchor="middle" x="720.4679" y="-129" font-family="Courier,monospace" font-size="10.00" fill="#000000">M</text>
</g>
<!-- MUSIC -->
<g id="node3" class="node">
<title>MUSIC</title>
<polygon fill="#ffffff" stroke="#000000" points="947.1922,-90 893.1922,-90 893.1922,-54 947.1922,-54 947.1922,-90"/>
<text text-anchor="middle" x="920.1922" y="-69.5" font-family="Courier,monospace" font-size="10.00" fill="#000000">MUSIC</text>
</g>
<!-- ARTIST -->
<g id="node4" class="node">
<title>ARTIST</title>
<polygon fill="#ffffff" stroke="#000000" points="693.4679,-36 639.4679,-36 639.4679,0 693.4679,0 693.4679,-36"/>
<text text-anchor="middle" x="666.4679" y="-15.5" font-family="Courier,monospace" font-size="10.00" fill="#000000">ARTIST</text>
</g>
<!-- PRODUCES -->
<g id="node11" class="node">
<title>PRODUCES</title>
<polygon fill="#ffffff" stroke="#000000" points="796.0801,-40 741.8555,-22 796.0801,-4 850.3047,-22 796.0801,-40"/>
<text text-anchor="middle" x="796.0801" y="-19.5" font-family="Courier,monospace" font-size="10.00" fill="#000000">PRODUCES</text>
</g>
<!-- ARTIST&#45;&#45;PRODUCES -->
<g id="edge11" class="edge">
<title>ARTIST&#45;&#45;PRODUCES</title>
<path fill="none" stroke="#000000" d="M693.7005,-16.8395C708.9922,-17.3114 728.5621,-17.9154 746.4921,-18.4687"/>
<path fill="none" stroke="transparent" d="M693.6388,-18.8385C708.9305,-19.3105 728.5004,-19.9144 746.4304,-20.4677"/>
<path fill="none" stroke="#000000" d="M693.5771,-20.8376C708.8688,-21.3095 728.4387,-21.9135 746.3687,-22.4668"/>
<text text-anchor="middle" x="720.4679" y="-22" font-family="Courier,monospace" font-size="10.00" fill="#000000">1</text>
</g>
<!-- LIBRARY -->
<g id="node5" class="node">
<title>LIBRARY</title>
<polygon fill="#ffffff" stroke="#000000" points="388.4688,-150 329.4688,-150 329.4688,-114 388.4688,-114 388.4688,-150"/>
<text text-anchor="middle" x="358.9688" y="-129.5" font-family="Courier,monospace" font-size="10.00" fill="#000000">LIBRARY</text>
</g>
<!-- CREATE -->
<g id="node8" class="node">
<title>CREATE</title>
<polygon fill="#ffffff" stroke="#000000" points="546.8456,-150 502.6008,-132 546.8456,-114 591.0905,-132 546.8456,-150"/>
<text text-anchor="middle" x="546.8456" y="-129.5" font-family="Courier,monospace" font-size="10.00" fill="#000000">CREATE</text>
</g>
<!-- LIBRARY&#45;&#45;CREATE -->
<g id="edge5" class="edge">
<title>LIBRARY&#45;&#45;CREATE</title>
<path fill="none" stroke="#000000" d="M388.7385,-132C419.3653,-132 467.4238,-132 502.5222,-132"/>
<text text-anchor="middle" x="445.5961" y="-135" font-family="Courier,monospace" font-size="10.00" fill="#000000">1</text>
</g>
<!-- LISTENS&#45;&#45;PLAYLIST -->
<g id="edge2" class="edge">
<title>LISTENS&#45;&#45;PLAYLIST</title>
<path fill="none" stroke="#000000" d="M307.7899,-179.4328C371.6888,-180.5333 491.4265,-179.2401 590.9679,-159 605.2914,-156.0876 620.5664,-151.0221 633.6027,-146.0597"/>
<text text-anchor="middle" x="445.5961" y="-181" font-family="Courier,monospace" font-size="10.00" fill="#000000">N</text>
</g>
<!-- HAS&#45;&#45;LIBRARY -->
<g id="edge4" class="edge">
<title>HAS&#45;&#45;LIBRARY</title>
<path fill="none" stroke="#000000" d="M175.267,-130C215.6862,-130 288.3695,-130 329.1442,-130"/>
<path fill="none" stroke="transparent" d="M175.267,-132C215.6862,-132 288.3695,-132 329.1442,-132"/>
<path fill="none" stroke="#000000" d="M175.267,-134C215.6862,-134 288.3695,-134 329.1442,-134"/>
<text text-anchor="middle" x="262.3516" y="-135" font-family="Courier,monospace" font-size="10.00" fill="#000000">1</text>
</g>
<!-- CREATE&#45;&#45;PLAYLIST -->
<g id="edge6" class="edge">
<title>CREATE&#45;&#45;PLAYLIST</title>
<path fill="none" stroke="#000000" d="M591.0487,-130C605.1582,-130 620.5138,-130 633.6644,-130"/>
<path fill="none" stroke="transparent" d="M591.0487,-132C605.1582,-132 620.5138,-132 633.6644,-132"/>
<path fill="none" stroke="#000000" d="M591.0487,-134C605.1582,-134 620.5138,-134 633.6644,-134"/>
<text text-anchor="middle" x="612.4679" y="-135" font-family="Courier,monospace" font-size="10.00" fill="#000000">M</text>
</g>
<!-- FOLLOWS&#45;&#45;USER -->
<g id="edge8" class="edge">
<title>FOLLOWS&#45;&#45;USER</title>
<path fill="none" stroke="#000000" d="M112.8785,-72.0415C99.9539,-70.8016 85.1266,-70.7183 72,-74 65.9871,-75.5032 59.898,-77.9788 54.2239,-80.7826"/>
<text text-anchor="middle" x="75.5" y="-77" font-family="Courier,monospace" font-size="10.00" fill="#000000">N</text>
</g>
<!-- CONTAINS&#45;&#45;MUSIC -->
<g id="edge10" class="edge">
<title>CONTAINS&#45;&#45;MUSIC</title>
<path fill="none" stroke="#000000" d="M821.7962,-108.4688C842.5289,-100.7846 871.6173,-90.0035 892.7872,-82.1572"/>
<text text-anchor="middle" x="871.6922" y="-93" font-family="Courier,monospace" font-size="10.00" fill="#000000">N</text>
</g>
<!-- PRODUCES&#45;&#45;MUSIC -->
<g id="edge12" class="edge">
<title>PRODUCES&#45;&#45;MUSIC</title>
<path fill="none" stroke="#000000" d="M826.8327,-28.0714C841.8618,-32.4393 860.0633,-38.3179 875.9832,-45.163 882.0011,-47.7581 888.1464,-50.849 893.9803,-54.0053"/>
<path fill="none" stroke="transparent" d="M826.2747,-29.9919C841.2471,-34.3425 859.4486,-40.2211 875.1922,-47 881.1024,-49.5448 887.2477,-52.6357 893.0283,-55.7642"/>
<path fill="none" stroke="#000000" d="M825.7166,-31.9125C840.6324,-36.2457 858.8339,-42.1243 874.4013,-48.837 880.2037,-51.3315 886.349,-54.4224 892.0764,-57.5231"/>
<text text-anchor="middle" x="871.6922" y="-50" font-family="Courier,monospace" font-size="10.00" fill="#000000">N</text>
</g>
<!-- HEARS&#45;&#45;MUSIC -->
<g id="edge14" class="edge">
<title>HEARS&#45;&#45;MUSIC</title>
<path fill="none" stroke="#000000" d="M470.5532,-51.6049C503.0014,-59.5983 561.5499,-72 612.4679,-72 612.4679,-72 612.4679,-72 796.0801,-72 829.4783,-72 867.9319,-72 893.0757,-72"/>
<text text-anchor="middle" x="666.4679" y="-75" font-family="Courier,monospace" font-size="10.00" fill="#000000">N</text>
</g>
</g>
</svg>
