<?xml version="1.0" encoding="UTF-8" standalone="no"?>
<!DOCTYPE svg PUBLIC "-//W3C//DTD SVG 1.1//EN"
 "http://www.w3.org/Graphics/SVG/1.1/DTD/svg11.dtd">
<!-- Generated by graphviz version 2.40.1 (20161225.0304)
 -->
<!-- Title: %3 Pages: 1 -->
<svg width="448pt" height="431pt"
 viewBox="0.00 0.00 448.00 431.14" xmlns="http://www.w3.org/2000/svg" xmlns:xlink="http://www.w3.org/1999/xlink">
<g id="graph0" class="graph" transform="scale(1 1) rotate(0) translate(4 427.141)">
<title>%3</title>
<polygon fill="#ffffff" stroke="transparent" points="-4,4 -4,-427.141 444,-427.141 444,4 -4,4"/>
<!-- USER -->
<g id="node1" class="node">
<title>USER</title>
<polygon fill="#ffffff" stroke="transparent" points="440,-310.141 363,-310.141 363,-166.141 440,-166.141 440,-310.141"/>
<polygon fill="none" stroke="#000000" points="371.5,-289.141 371.5,-306.141 432.5,-306.141 432.5,-289.141 371.5,-289.141"/>
<text text-anchor="start" x="374.5" y="-296.141" font-family="Courier,monospace" font-weight="bold" font-size="10.00" fill="#000000">USER</text>
<polygon fill="none" stroke="#000000" points="371.5,-272.141 371.5,-289.141 432.5,-289.141 432.5,-272.141 371.5,-272.141"/>
<text text-anchor="start" x="374.5" y="-279.141" font-family="Courier,monospace" text-decoration="underline" font-size="10.00" fill="#000000">IdUser</text>
<polygon fill="none" stroke="#000000" points="371.5,-255.141 371.5,-272.141 432.5,-272.141 432.5,-255.141 371.5,-255.141"/>
<text text-anchor="start" x="374.5" y="-261.141" font-family="Courier,monospace" font-size="10.00" fill="#000000">Name</text>
<polygon fill="none" stroke="#000000" points="371.5,-238.141 371.5,-255.141 432.5,-255.141 432.5,-238.141 371.5,-238.141"/>
<text text-anchor="start" x="374.5" y="-244.141" font-family="Courier,monospace" font-size="10.00" fill="#000000">Email</text>
<polygon fill="none" stroke="#000000" points="371.5,-221.141 371.5,-238.141 432.5,-238.141 432.5,-221.141 371.5,-221.141"/>
<text text-anchor="start" x="374.5" y="-227.141" font-family="Courier,monospace" font-size="10.00" fill="#000000">Birthdate</text>
<polygon fill="none" stroke="#000000" points="371.5,-204.141 371.5,-221.141 432.5,-221.141 432.5,-204.141 371.5,-204.141"/>
<text text-anchor="start" x="374.5" y="-210.141" font-family="Courier,monospace" font-size="10.00" fill="#000000">Sex</text>
<polygon fill="none" stroke="#000000" points="371.5,-187.141 371.5,-204.141 432.5,-204.141 432.5,-187.141 371.5,-187.141"/>
<text text-anchor="start" x="374.5" y="-193.141" font-family="Courier,monospace" font-size="10.00" fill="#000000">Joined</text>
<polygon fill="none" stroke="#000000" points="371.5,-170.141 371.5,-187.141 432.5,-187.141 432.5,-170.141 371.5,-170.141"/>
<text text-anchor="start" x="374.5" y="-176.141" font-family="Courier,monospace" font-size="10.00" fill="#000000">Phone ?</text>
</g>
<!-- PAYMENT -->
<g id="node2" class="node">
<title>PAYMENT</title>
<polygon fill="#ffffff" stroke="transparent" points="327,-423.141 238,-423.141 238,-347.141 327,-347.141 327,-423.141"/>
<polygon fill="none" stroke="#000000" points="246.5,-402.141 246.5,-419.141 319.5,-419.141 319.5,-402.141 246.5,-402.141"/>
<text text-anchor="start" x="249.5" y="-409.141" font-family="Courier,monospace" font-weight="bold" font-size="10.00" fill="#000000">PAYMENT</text>
<polygon fill="none" stroke="#000000" points="246.5,-385.141 246.5,-402.141 319.5,-402.141 319.5,-385.141 246.5,-385.141"/>
<text text-anchor="start" x="249.5" y="-392.141" font-family="Courier,monospace" text-decoration="underline" font-size="10.00" fill="#000000">IdUser</text>
<polygon fill="none" stroke="#000000" points="246.5,-368.141 246.5,-385.141 319.5,-385.141 319.5,-368.141 246.5,-368.141"/>
<text text-anchor="start" x="249.5" y="-374.141" font-family="Courier,monospace" font-size="10.00" fill="#000000">Method</text>
<polygon fill="none" stroke="#000000" points="246.5,-351.141 246.5,-368.141 319.5,-368.141 319.5,-351.141 246.5,-351.141"/>
<text text-anchor="start" x="249.5" y="-357.141" font-family="Courier,monospace" font-size="10.00" fill="#000000">PaymentDate</text>
</g>
<!-- PAYMENT&#45;&gt;USER -->
<g id="edge1" class="edge">
<title>PAYMENT:IdUser&#45;&gt;USER:IdUser</title>
<path fill="none" stroke="#000000" d="M319.5,-394.141C370.8975,-394.141 323.8888,-296.4729 361.4479,-282.7384"/>
<polygon fill="#000000" stroke="#000000" points="362.1732,-286.1671 371.5,-281.141 361.0746,-279.2538 362.1732,-286.1671"/>
</g>
<!-- LIBRARY -->
<g id="node3" class="node">
<title>LIBRARY</title>
<polygon fill="#ffffff" stroke="transparent" points="321,-282.641 244,-282.641 244,-223.641 321,-223.641 321,-282.641"/>
<polygon fill="none" stroke="#000000" points="252.5,-261.141 252.5,-278.141 313.5,-278.141 313.5,-261.141 252.5,-261.141"/>
<text text-anchor="start" x="255.5" y="-268.141" font-family="Courier,monospace" font-weight="bold" font-size="10.00" fill="#000000">LIBRARY</text>
<polygon fill="none" stroke="#000000" points="252.5,-244.141 252.5,-261.141 313.5,-261.141 313.5,-244.141 252.5,-244.141"/>
<text text-anchor="start" x="255.5" y="-251.141" font-family="Courier,monospace" text-decoration="underline" font-size="10.00" fill="#000000">IdLibrary</text>
<polygon fill="none" stroke="#000000" points="252.5,-227.141 252.5,-244.141 313.5,-244.141 313.5,-227.141 252.5,-227.141"/>
<text text-anchor="start" x="255.5" y="-233.141" font-family="Courier,monospace" font-size="10.00" fill="#000000">IdUser</text>
</g>
<!-- LIBRARY&#45;&gt;USER -->
<g id="edge2" class="edge">
<title>LIBRARY:IdUser&#45;&gt;USER:IdUser</title>
<path fill="none" stroke="#000000" d="M313.5,-235.141C342.5453,-235.141 339.8687,-270.9914 361.4792,-279.3939"/>
<polygon fill="#000000" stroke="#000000" points="361.0474,-282.8713 371.5,-281.141 362.2498,-275.9753 361.0474,-282.8713"/>
</g>
<!-- PLAYLIST -->
<g id="node4" class="node">
<title>PLAYLIST</title>
<polygon fill="#ffffff" stroke="transparent" points="202,-291.141 119,-291.141 119,-215.141 202,-215.141 202,-291.141"/>
<polygon fill="none" stroke="#000000" points="127.5,-270.141 127.5,-287.141 194.5,-287.141 194.5,-270.141 127.5,-270.141"/>
<text text-anchor="start" x="130.5" y="-277.141" font-family="Courier,monospace" font-weight="bold" font-size="10.00" fill="#000000">PLAYLIST</text>
<polygon fill="none" stroke="#000000" points="127.5,-253.141 127.5,-270.141 194.5,-270.141 194.5,-253.141 127.5,-253.141"/>
<text text-anchor="start" x="130.5" y="-260.141" font-family="Courier,monospace" text-decoration="underline" font-size="10.00" fill="#000000">IdPlaylist</text>
<polygon fill="none" stroke="#000000" points="127.5,-236.141 127.5,-253.141 194.5,-253.141 194.5,-236.141 127.5,-236.141"/>
<text text-anchor="start" x="130.5" y="-242.141" font-family="Courier,monospace" font-size="10.00" fill="#000000">IdLibrary</text>
<polygon fill="none" stroke="#000000" points="127.5,-219.141 127.5,-236.141 194.5,-236.141 194.5,-219.141 127.5,-219.141"/>
<text text-anchor="start" x="130.5" y="-225.141" font-family="Courier,monospace" font-size="10.00" fill="#000000">Name</text>
</g>
<!-- PLAYLIST&#45;&gt;LIBRARY -->
<g id="edge3" class="edge">
<title>PLAYLIST:IdLibrary&#45;&gt;LIBRARY:IdLibrary</title>
<path fill="none" stroke="#000000" d="M194.5,-244.141C216.6592,-244.141 224.2678,-249.9422 242.1072,-251.6645"/>
<polygon fill="#000000" stroke="#000000" points="242.3502,-255.1792 252.5,-252.141 242.6708,-248.1865 242.3502,-255.1792"/>
</g>
<!-- LISTENS -->
<g id="node5" class="node">
<title>LISTENS</title>
<polygon fill="#ffffff" stroke="transparent" points="83,-329.641 0,-329.641 0,-270.641 83,-270.641 83,-329.641"/>
<polygon fill="none" stroke="#000000" points="8.5,-308.141 8.5,-325.141 75.5,-325.141 75.5,-308.141 8.5,-308.141"/>
<text text-anchor="start" x="11.5" y="-315.141" font-family="Courier,monospace" font-weight="bold" font-size="10.00" fill="#000000">LISTENS</text>
<polygon fill="none" stroke="#000000" points="8.5,-291.141 8.5,-308.141 75.5,-308.141 75.5,-291.141 8.5,-291.141"/>
<text text-anchor="start" x="11.5" y="-298.141" font-family="Courier,monospace" text-decoration="underline" font-size="10.00" fill="#000000">IdUser</text>
<polygon fill="none" stroke="#000000" points="8.5,-274.141 8.5,-291.141 75.5,-291.141 75.5,-274.141 8.5,-274.141"/>
<text text-anchor="start" x="11.5" y="-281.141" font-family="Courier,monospace" text-decoration="underline" font-size="10.00" fill="#000000">IdPlaylist</text>
</g>
<!-- LISTENS&#45;&gt;USER -->
<g id="edge4" class="edge">
<title>LISTENS:IdUser&#45;&gt;USER:IdUser</title>
<path fill="none" stroke="#000000" d="M75.5,-299.141C94.8384,-299.141 99.6628,-299.9187 119,-300.141 211.5067,-301.2041 235.5696,-306.2515 327,-292.141 343.2021,-289.6405 348.9517,-284.0415 361.195,-281.9497"/>
<polygon fill="#000000" stroke="#000000" points="361.8045,-285.4127 371.5,-281.141 361.2568,-278.4342 361.8045,-285.4127"/>
</g>
<!-- LISTENS&#45;&gt;PLAYLIST -->
<g id="edge5" class="edge">
<title>LISTENS:IdPlaylist&#45;&gt;PLAYLIST:IdPlaylist</title>
<path fill="none" stroke="#000000" d="M75.5,-282.141C96.3926,-282.141 101.4203,-267.9027 117.3552,-263.4532"/>
<polygon fill="#000000" stroke="#000000" points="118.0316,-266.895 127.5,-262.141 117.1336,-259.9528 118.0316,-266.895"/>
</g>
<!-- ARTIST -->
<g id="node6" class="node">
<title>ARTIST</title>
<polygon fill="#ffffff" stroke="transparent" points="318,-124.641 247,-124.641 247,-65.641 318,-65.641 318,-124.641"/>
<polygon fill="none" stroke="#000000" points="255.5,-103.141 255.5,-120.141 310.5,-120.141 310.5,-103.141 255.5,-103.141"/>
<text text-anchor="start" x="258.5" y="-110.141" font-family="Courier,monospace" font-weight="bold" font-size="10.00" fill="#000000">ARTIST</text>
<polygon fill="none" stroke="#000000" points="255.5,-86.141 255.5,-103.141 310.5,-103.141 310.5,-86.141 255.5,-86.141"/>
<text text-anchor="start" x="258.5" y="-93.141" font-family="Courier,monospace" text-decoration="underline" font-size="10.00" fill="#000000">IdArtist</text>
<polygon fill="none" stroke="#000000" points="255.5,-69.141 255.5,-86.141 310.5,-86.141 310.5,-69.141 255.5,-69.141"/>
<text text-anchor="start" x="258.5" y="-75.141" font-family="Courier,monospace" font-size="10.00" fill="#000000">Name</text>
</g>
<!-- MUSIC -->
<g id="node7" class="node">
<title>MUSIC</title>
<polygon fill="#ffffff" stroke="transparent" points="196,-196.641 125,-196.641 125,-103.641 196,-103.641 196,-196.641"/>
<polygon fill="none" stroke="#000000" points="133.5,-175.141 133.5,-192.141 188.5,-192.141 188.5,-175.141 133.5,-175.141"/>
<text text-anchor="start" x="136.5" y="-182.141" font-family="Courier,monospace" font-weight="bold" font-size="10.00" fill="#000000">MUSIC</text>
<polygon fill="none" stroke="#000000" points="133.5,-158.141 133.5,-175.141 188.5,-175.141 188.5,-158.141 133.5,-158.141"/>
<text text-anchor="start" x="136.5" y="-165.141" font-family="Courier,monospace" text-decoration="underline" font-size="10.00" fill="#000000">IdMusic</text>
<polygon fill="none" stroke="#000000" points="133.5,-141.141 133.5,-158.141 188.5,-158.141 188.5,-141.141 133.5,-141.141"/>
<text text-anchor="start" x="136.5" y="-147.141" font-family="Courier,monospace" font-size="10.00" fill="#000000">Name</text>
<polygon fill="none" stroke="#000000" points="133.5,-124.141 133.5,-141.141 188.5,-141.141 188.5,-124.141 133.5,-124.141"/>
<text text-anchor="start" x="136.5" y="-130.141" font-family="Courier,monospace" font-size="10.00" fill="#000000">IdArtist</text>
<polygon fill="none" stroke="#000000" points="133.5,-107.141 133.5,-124.141 188.5,-124.141 188.5,-107.141 133.5,-107.141"/>
<text text-anchor="start" x="136.5" y="-113.141" font-family="Courier,monospace" font-size="10.00" fill="#000000">Album ?</text>
</g>
<!-- MUSIC&#45;&gt;ARTIST -->
<g id="edge6" class="edge">
<title>MUSIC:IdArtist&#45;&gt;ARTIST:IdArtist</title>
<path fill="none" stroke="#000000" d="M188.5,-132.141C218.9894,-132.141 221.1602,-101.9989 245.4549,-95.4053"/>
<polygon fill="#000000" stroke="#000000" points="246.0154,-98.8624 255.5,-94.141 245.1412,-91.9172 246.0154,-98.8624"/>
</g>
<!-- HEARS -->
<g id="node8" class="node">
<title>HEARS</title>
<polygon fill="#ffffff" stroke="transparent" points="74,-82.641 9,-82.641 9,-23.641 74,-23.641 74,-82.641"/>
<polygon fill="none" stroke="#000000" points="17.5,-61.141 17.5,-78.141 66.5,-78.141 66.5,-61.141 17.5,-61.141"/>
<text text-anchor="start" x="20.5" y="-68.141" font-family="Courier,monospace" font-weight="bold" font-size="10.00" fill="#000000">HEARS</text>
<polygon fill="none" stroke="#000000" points="17.5,-44.141 17.5,-61.141 66.5,-61.141 66.5,-44.141 17.5,-44.141"/>
<text text-anchor="start" x="20.5" y="-51.141" font-family="Courier,monospace" text-decoration="underline" font-size="10.00" fill="#000000">IdUser</text>
<polygon fill="none" stroke="#000000" points="17.5,-27.141 17.5,-44.141 66.5,-44.141 66.5,-27.141 17.5,-27.141"/>
<text text-anchor="start" x="20.5" y="-34.141" font-family="Courier,monospace" text-decoration="underline" font-size="10.00" fill="#000000">IdMusic</text>
</g>
<!-- HEARS&#45;&gt;USER -->
<g id="edge7" class="edge">
<title>HEARS:IdUser&#45;&gt;USER:IdUser</title>
<path fill="none" stroke="#000000" d="M66.5,-52.141C94.2991,-52.141 92.3407,-26.0195 119,-18.141 209.199,8.5154 264.1207,12.8062 327,-57.141 392.4052,-129.8979 278.7703,-270.5037 361.3643,-280.5697"/>
<polygon fill="#000000" stroke="#000000" points="361.3189,-284.0726 371.5,-281.141 361.7128,-277.0837 361.3189,-284.0726"/>
</g>
<!-- HEARS&#45;&gt;MUSIC -->
<g id="edge8" class="edge">
<title>HEARS:IdMusic&#45;&gt;MUSIC:IdMusic</title>
<path fill="none" stroke="#000000" d="M66.5,-35.141C128.5648,-35.141 74.6064,-152.6113 123.528,-165.9185"/>
<polygon fill="#000000" stroke="#000000" points="123.1484,-169.3981 133.5,-167.141 124.0002,-162.4501 123.1484,-169.3981"/>
</g>
<!-- CONTAINS -->
<g id="node9" class="node">
<title>CONTAINS</title>
<polygon fill="#ffffff" stroke="transparent" points="83,-233.641 0,-233.641 0,-174.641 83,-174.641 83,-233.641"/>
<polygon fill="none" stroke="#000000" points="8.5,-212.141 8.5,-229.141 75.5,-229.141 75.5,-212.141 8.5,-212.141"/>
<text text-anchor="start" x="11.5" y="-219.141" font-family="Courier,monospace" font-weight="bold" font-size="10.00" fill="#000000">CONTAINS</text>
<polygon fill="none" stroke="#000000" points="8.5,-195.141 8.5,-212.141 75.5,-212.141 75.5,-195.141 8.5,-195.141"/>
<text text-anchor="start" x="11.5" y="-202.141" font-family="Courier,monospace" text-decoration="underline" font-size="10.00" fill="#000000">IdPlaylist</text>
<polygon fill="none" stroke="#000000" points="8.5,-178.141 8.5,-195.141 75.5,-195.141 75.5,-178.141 8.5,-178.141"/>
<text text-anchor="start" x="11.5" y="-185.141" font-family="Courier,monospace" text-decoration="underline" font-size="10.00" fill="#000000">IdMusic</text>
</g>
<!-- CONTAINS&#45;&gt;PLAYLIST -->
<g id="edge9" class="edge">
<title>CONTAINS:IdPlaylist&#45;&gt;PLAYLIST:IdPlaylist</title>
<path fill="none" stroke="#000000" d="M75.5,-203.141C106.4937,-203.141 95.9254,-249.5309 117.5027,-260.0411"/>
<polygon fill="#000000" stroke="#000000" points="116.9941,-263.5106 127.5,-262.141 118.433,-256.6601 116.9941,-263.5106"/>
</g>
<!-- CONTAINS&#45;&gt;MUSIC -->
<g id="edge10" class="edge">
<title>CONTAINS:IdMusic&#45;&gt;MUSIC:IdMusic</title>
<path fill="none" stroke="#000000" d="M75.5,-186.141C98.8111,-186.141 104.8577,-172.109 123.3132,-168.1625"/>
<polygon fill="#000000" stroke="#000000" points="123.8992,-171.6214 133.5,-167.141 123.2006,-164.6563 123.8992,-171.6214"/>
</g>
<!-- GENRE -->
<g id="node10" class="node">
<title>GENRE</title>
<polygon fill="#ffffff" stroke="transparent" points="196,-85.641 125,-85.641 125,-26.641 196,-26.641 196,-85.641"/>
<polygon fill="none" stroke="#000000" points="133.5,-64.141 133.5,-81.141 188.5,-81.141 188.5,-64.141 133.5,-64.141"/>
<text text-anchor="start" x="136.5" y="-71.141" font-family="Courier,monospace" font-weight="bold" font-size="10.00" fill="#000000">GENRE</text>
<polygon fill="none" stroke="#000000" points="133.5,-47.141 133.5,-64.141 188.5,-64.141 188.5,-47.141 133.5,-47.141"/>
<text text-anchor="start" x="136.5" y="-54.141" font-family="Courier,monospace" text-decoration="underline" font-size="10.00" fill="#000000">IdArtist</text>
<polygon fill="none" stroke="#000000" points="133.5,-30.141 133.5,-47.141 188.5,-47.141 188.5,-30.141 133.5,-30.141"/>
<text text-anchor="start" x="136.5" y="-36.141" font-family="Courier,monospace" font-size="10.00" fill="#000000">Type</text>
</g>
<!-- GENRE&#45;&gt;ARTIST -->
<g id="edge11" class="edge">
<title>GENRE:IdArtist&#45;&gt;ARTIST:IdArtist</title>
<path fill="none" stroke="#000000" d="M188.5,-55.141C219.1867,-55.141 221.0277,-86.0763 245.4043,-92.8434"/>
<polygon fill="#000000" stroke="#000000" points="245.1354,-96.3375 255.5,-94.141 246.0278,-89.3946 245.1354,-96.3375"/>
</g>
</g>
</svg>
