<?xml version="1.0" encoding="UTF-8" standalone="no"?>
<!DOCTYPE svg PUBLIC "-//W3C//DTD SVG 1.1//EN"
 "http://www.w3.org/Graphics/SVG/1.1/DTD/svg11.dtd">
<!-- Generated by graphviz version 2.40.1 (20161225.0304)
 -->
<!-- Title: %3 Pages: 1 -->
<svg width="329pt" height="443pt"
 viewBox="0.00 0.00 329.00 443.00" xmlns="http://www.w3.org/2000/svg" xmlns:xlink="http://www.w3.org/1999/xlink">
<g id="graph0" class="graph" transform="scale(1 1) rotate(0) translate(4 439)">
<title>%3</title>
<polygon fill="#ffffff" stroke="transparent" points="-4,4 -4,-439 325,-439 325,4 -4,4"/>
<!-- USER -->
<g id="node1" class="node">
<title>USER</title>
<polygon fill="#ffffff" stroke="transparent" points="321,-340.5 244,-340.5 244,-196.5 321,-196.5 321,-340.5"/>
<polygon fill="none" stroke="#000000" points="252.5,-319.5 252.5,-336.5 313.5,-336.5 313.5,-319.5 252.5,-319.5"/>
<text text-anchor="start" x="255.5" y="-326.5" font-family="Courier,monospace" font-weight="bold" font-size="10.00" fill="#000000">USER</text>
<polygon fill="none" stroke="#000000" points="252.5,-302.5 252.5,-319.5 313.5,-319.5 313.5,-302.5 252.5,-302.5"/>
<text text-anchor="start" x="255.5" y="-309.5" font-family="Courier,monospace" text-decoration="underline" font-size="10.00" fill="#000000">IdUser</text>
<polygon fill="none" stroke="#000000" points="252.5,-285.5 252.5,-302.5 313.5,-302.5 313.5,-285.5 252.5,-285.5"/>
<text text-anchor="start" x="255.5" y="-291.5" font-family="Courier,monospace" font-size="10.00" fill="#000000">Name</text>
<polygon fill="none" stroke="#000000" points="252.5,-268.5 252.5,-285.5 313.5,-285.5 313.5,-268.5 252.5,-268.5"/>
<text text-anchor="start" x="255.5" y="-274.5" font-family="Courier,monospace" font-size="10.00" fill="#000000">Email</text>
<polygon fill="none" stroke="#000000" points="252.5,-251.5 252.5,-268.5 313.5,-268.5 313.5,-251.5 252.5,-251.5"/>
<text text-anchor="start" x="255.5" y="-257.5" font-family="Courier,monospace" font-size="10.00" fill="#000000">Birthdate</text>
<polygon fill="none" stroke="#000000" points="252.5,-234.5 252.5,-251.5 313.5,-251.5 313.5,-234.5 252.5,-234.5"/>
<text text-anchor="start" x="255.5" y="-240.5" font-family="Courier,monospace" font-size="10.00" fill="#000000">Sex</text>
<polygon fill="none" stroke="#000000" points="252.5,-217.5 252.5,-234.5 313.5,-234.5 313.5,-217.5 252.5,-217.5"/>
<text text-anchor="start" x="255.5" y="-223.5" font-family="Courier,monospace" font-size="10.00" fill="#000000">Joined</text>
<polygon fill="none" stroke="#000000" points="252.5,-200.5 252.5,-217.5 313.5,-217.5 313.5,-200.5 252.5,-200.5"/>
<text text-anchor="start" x="255.5" y="-206.5" font-family="Courier,monospace" font-size="10.00" fill="#000000">Phone ?</text>
</g>
<!-- PAYMENT -->
<g id="node2" class="node">
<title>PAYMENT</title>
<polygon fill="#ffffff" stroke="transparent" points="208,-302.5 119,-302.5 119,-226.5 208,-226.5 208,-302.5"/>
<polygon fill="none" stroke="#000000" points="127.5,-281.5 127.5,-298.5 200.5,-298.5 200.5,-281.5 127.5,-281.5"/>
<text text-anchor="start" x="130.5" y="-288.5" font-family="Courier,monospace" font-weight="bold" font-size="10.00" fill="#000000">PAYMENT</text>
<polygon fill="none" stroke="#000000" points="127.5,-264.5 127.5,-281.5 200.5,-281.5 200.5,-264.5 127.5,-264.5"/>
<text text-anchor="start" x="130.5" y="-271.5" font-family="Courier,monospace" text-decoration="underline" font-size="10.00" fill="#000000">IdUser</text>
<polygon fill="none" stroke="#000000" points="127.5,-247.5 127.5,-264.5 200.5,-264.5 200.5,-247.5 127.5,-247.5"/>
<text text-anchor="start" x="130.5" y="-253.5" font-family="Courier,monospace" font-size="10.00" fill="#000000">Method</text>
<polygon fill="none" stroke="#000000" points="127.5,-230.5 127.5,-247.5 200.5,-247.5 200.5,-230.5 127.5,-230.5"/>
<text text-anchor="start" x="130.5" y="-236.5" font-family="Courier,monospace" font-size="10.00" fill="#000000">PaymentDate</text>
</g>
<!-- PAYMENT&#45;&gt;USER -->
<g id="edge1" class="edge">
<title>PAYMENT:IdUser&#45;&gt;USER:IdUser</title>
<path fill="none" stroke="#000000" d="M200.5,-273.5C225.0991,-273.5 224.682,-301.564 242.2452,-309.457"/>
<polygon fill="#000000" stroke="#000000" points="242.0089,-312.9786 252.5,-311.5 243.3766,-306.1135 242.0089,-312.9786"/>
</g>
<!-- PLAYLIST -->
<g id="node3" class="node">
<title>PLAYLIST</title>
<polygon fill="#ffffff" stroke="transparent" points="205,-396.5 122,-396.5 122,-320.5 205,-320.5 205,-396.5"/>
<polygon fill="none" stroke="#000000" points="130.5,-375.5 130.5,-392.5 197.5,-392.5 197.5,-375.5 130.5,-375.5"/>
<text text-anchor="start" x="133.5" y="-382.5" font-family="Courier,monospace" font-weight="bold" font-size="10.00" fill="#000000">PLAYLIST</text>
<polygon fill="none" stroke="#000000" points="130.5,-358.5 130.5,-375.5 197.5,-375.5 197.5,-358.5 130.5,-358.5"/>
<text text-anchor="start" x="133.5" y="-365.5" font-family="Courier,monospace" text-decoration="underline" font-size="10.00" fill="#000000">IdPlaylist</text>
<polygon fill="none" stroke="#000000" points="130.5,-341.5 130.5,-358.5 197.5,-358.5 197.5,-341.5 130.5,-341.5"/>
<text text-anchor="start" x="133.5" y="-347.5" font-family="Courier,monospace" font-size="10.00" fill="#000000">IdUser</text>
<polygon fill="none" stroke="#000000" points="130.5,-324.5 130.5,-341.5 197.5,-341.5 197.5,-324.5 130.5,-324.5"/>
<text text-anchor="start" x="133.5" y="-330.5" font-family="Courier,monospace" font-size="10.00" fill="#000000">Name</text>
</g>
<!-- PLAYLIST&#45;&gt;USER -->
<g id="edge2" class="edge">
<title>PLAYLIST:IdUser&#45;&gt;USER:IdUser</title>
<path fill="none" stroke="#000000" d="M197.5,-349.5C223.3814,-349.5 223.3617,-320.6654 242.5654,-313.2315"/>
<polygon fill="#000000" stroke="#000000" points="243.2495,-316.6651 252.5,-311.5 242.0475,-309.7691 243.2495,-316.6651"/>
</g>
<!-- LISTENS -->
<g id="node4" class="node">
<title>LISTENS</title>
<polygon fill="#ffffff" stroke="transparent" points="83,-435 0,-435 0,-376 83,-376 83,-435"/>
<polygon fill="none" stroke="#000000" points="8.5,-413.5 8.5,-430.5 75.5,-430.5 75.5,-413.5 8.5,-413.5"/>
<text text-anchor="start" x="11.5" y="-420.5" font-family="Courier,monospace" font-weight="bold" font-size="10.00" fill="#000000">LISTENS</text>
<polygon fill="none" stroke="#000000" points="8.5,-396.5 8.5,-413.5 75.5,-413.5 75.5,-396.5 8.5,-396.5"/>
<text text-anchor="start" x="11.5" y="-403.5" font-family="Courier,monospace" text-decoration="underline" font-size="10.00" fill="#000000">IdUser</text>
<polygon fill="none" stroke="#000000" points="8.5,-379.5 8.5,-396.5 75.5,-396.5 75.5,-379.5 8.5,-379.5"/>
<text text-anchor="start" x="11.5" y="-386.5" font-family="Courier,monospace" text-decoration="underline" font-size="10.00" fill="#000000">IdPlaylist</text>
</g>
<!-- LISTENS&#45;&gt;USER -->
<g id="edge3" class="edge">
<title>LISTENS:IdUser&#45;&gt;USER:IdUser</title>
<path fill="none" stroke="#000000" d="M75.5,-404.5C134.3906,-404.5 158.2404,-436.9974 208,-405.5 243.6995,-382.9025 212.6965,-323.0781 242.4049,-312.9627"/>
<polygon fill="#000000" stroke="#000000" points="243.1052,-316.3978 252.5,-311.5 242.1014,-309.4702 243.1052,-316.3978"/>
</g>
<!-- LISTENS&#45;&gt;PLAYLIST -->
<g id="edge4" class="edge">
<title>LISTENS:IdPlaylist&#45;&gt;PLAYLIST:IdPlaylist</title>
<path fill="none" stroke="#000000" d="M75.5,-387.5C97.6495,-387.5 103.0977,-372.9968 120.289,-368.6912"/>
<polygon fill="#000000" stroke="#000000" points="120.9729,-372.1352 130.5,-367.5 120.1618,-365.1824 120.9729,-372.1352"/>
</g>
<!-- ARTIST -->
<g id="node5" class="node">
<title>ARTIST</title>
<polygon fill="#ffffff" stroke="transparent" points="318,-98 247,-98 247,-39 318,-39 318,-98"/>
<polygon fill="none" stroke="#000000" points="255.5,-76.5 255.5,-93.5 310.5,-93.5 310.5,-76.5 255.5,-76.5"/>
<text text-anchor="start" x="258.5" y="-83.5" font-family="Courier,monospace" font-weight="bold" font-size="10.00" fill="#000000">ARTIST</text>
<polygon fill="none" stroke="#000000" points="255.5,-59.5 255.5,-76.5 310.5,-76.5 310.5,-59.5 255.5,-59.5"/>
<text text-anchor="start" x="258.5" y="-66.5" font-family="Courier,monospace" text-decoration="underline" font-size="10.00" fill="#000000">IdArtist</text>
<polygon fill="none" stroke="#000000" points="255.5,-42.5 255.5,-59.5 310.5,-59.5 310.5,-42.5 255.5,-42.5"/>
<text text-anchor="start" x="258.5" y="-48.5" font-family="Courier,monospace" font-size="10.00" fill="#000000">Name</text>
</g>
<!-- MUSIC -->
<g id="node6" class="node">
<title>MUSIC</title>
<polygon fill="#ffffff" stroke="transparent" points="199,-170 128,-170 128,-77 199,-77 199,-170"/>
<polygon fill="none" stroke="#000000" points="136.5,-148.5 136.5,-165.5 191.5,-165.5 191.5,-148.5 136.5,-148.5"/>
<text text-anchor="start" x="139.5" y="-155.5" font-family="Courier,monospace" font-weight="bold" font-size="10.00" fill="#000000">MUSIC</text>
<polygon fill="none" stroke="#000000" points="136.5,-131.5 136.5,-148.5 191.5,-148.5 191.5,-131.5 136.5,-131.5"/>
<text text-anchor="start" x="139.5" y="-138.5" font-family="Courier,monospace" text-decoration="underline" font-size="10.00" fill="#000000">IdMusic</text>
<polygon fill="none" stroke="#000000" points="136.5,-114.5 136.5,-131.5 191.5,-131.5 191.5,-114.5 136.5,-114.5"/>
<text text-anchor="start" x="139.5" y="-120.5" font-family="Courier,monospace" font-size="10.00" fill="#000000">Name</text>
<polygon fill="none" stroke="#000000" points="136.5,-97.5 136.5,-114.5 191.5,-114.5 191.5,-97.5 136.5,-97.5"/>
<text text-anchor="start" x="139.5" y="-103.5" font-family="Courier,monospace" font-size="10.00" fill="#000000">IdArtist</text>
<polygon fill="none" stroke="#000000" points="136.5,-80.5 136.5,-97.5 191.5,-97.5 191.5,-80.5 136.5,-80.5"/>
<text text-anchor="start" x="139.5" y="-86.5" font-family="Courier,monospace" font-size="10.00" fill="#000000">Album ?</text>
</g>
<!-- MUSIC&#45;&gt;ARTIST -->
<g id="edge5" class="edge">
<title>MUSIC:IdArtist&#45;&gt;ARTIST:IdArtist</title>
<path fill="none" stroke="#000000" d="M191.5,-105.5C220.8331,-105.5 222.4568,-75.6217 245.5121,-68.8524"/>
<polygon fill="#000000" stroke="#000000" points="246.0601,-72.3103 255.5,-67.5 245.1208,-65.3736 246.0601,-72.3103"/>
</g>
<!-- HEARS -->
<g id="node7" class="node">
<title>HEARS</title>
<polygon fill="#ffffff" stroke="transparent" points="74,-209 9,-209 9,-150 74,-150 74,-209"/>
<polygon fill="none" stroke="#000000" points="17.5,-187.5 17.5,-204.5 66.5,-204.5 66.5,-187.5 17.5,-187.5"/>
<text text-anchor="start" x="20.5" y="-194.5" font-family="Courier,monospace" font-weight="bold" font-size="10.00" fill="#000000">HEARS</text>
<polygon fill="none" stroke="#000000" points="17.5,-170.5 17.5,-187.5 66.5,-187.5 66.5,-170.5 17.5,-170.5"/>
<text text-anchor="start" x="20.5" y="-177.5" font-family="Courier,monospace" text-decoration="underline" font-size="10.00" fill="#000000">IdUser</text>
<polygon fill="none" stroke="#000000" points="17.5,-153.5 17.5,-170.5 66.5,-170.5 66.5,-153.5 17.5,-153.5"/>
<text text-anchor="start" x="20.5" y="-160.5" font-family="Courier,monospace" text-decoration="underline" font-size="10.00" fill="#000000">IdMusic</text>
</g>
<!-- HEARS&#45;&gt;USER -->
<g id="edge6" class="edge">
<title>HEARS:IdUser&#45;&gt;USER:IdUser</title>
<path fill="none" stroke="#000000" d="M66.5,-178.5C131.7339,-178.5 158.0558,-175.5353 208,-217.5 240.3477,-244.6796 212.1204,-300.7095 242.3306,-310.1389"/>
<polygon fill="#000000" stroke="#000000" points="242.124,-313.6423 252.5,-311.5 243.0527,-306.7042 242.124,-313.6423"/>
</g>
<!-- HEARS&#45;&gt;MUSIC -->
<g id="edge7" class="edge">
<title>HEARS:IdMusic&#45;&gt;MUSIC:IdMusic</title>
<path fill="none" stroke="#000000" d="M66.5,-161.5C95.3015,-161.5 102.5254,-144.9883 126.4383,-141.2474"/>
<polygon fill="#000000" stroke="#000000" points="126.7868,-144.7312 136.5,-140.5 126.2682,-137.7505 126.7868,-144.7312"/>
</g>
<!-- CONTAINS -->
<g id="node8" class="node">
<title>CONTAINS</title>
<polygon fill="#ffffff" stroke="transparent" points="83,-332 0,-332 0,-273 83,-273 83,-332"/>
<polygon fill="none" stroke="#000000" points="8.5,-310.5 8.5,-327.5 75.5,-327.5 75.5,-310.5 8.5,-310.5"/>
<text text-anchor="start" x="11.5" y="-317.5" font-family="Courier,monospace" font-weight="bold" font-size="10.00" fill="#000000">CONTAINS</text>
<polygon fill="none" stroke="#000000" points="8.5,-293.5 8.5,-310.5 75.5,-310.5 75.5,-293.5 8.5,-293.5"/>
<text text-anchor="start" x="11.5" y="-300.5" font-family="Courier,monospace" text-decoration="underline" font-size="10.00" fill="#000000">IdPlaylist</text>
<polygon fill="none" stroke="#000000" points="8.5,-276.5 8.5,-293.5 75.5,-293.5 75.5,-276.5 8.5,-276.5"/>
<text text-anchor="start" x="11.5" y="-283.5" font-family="Courier,monospace" text-decoration="underline" font-size="10.00" fill="#000000">IdMusic</text>
</g>
<!-- CONTAINS&#45;&gt;PLAYLIST -->
<g id="edge8" class="edge">
<title>CONTAINS:IdPlaylist&#45;&gt;PLAYLIST:IdPlaylist</title>
<path fill="none" stroke="#000000" d="M75.5,-301.5C109.8054,-301.5 96.0424,-354.7745 120.584,-365.5959"/>
<polygon fill="#000000" stroke="#000000" points="120.0194,-369.0514 130.5,-367.5 121.3395,-362.177 120.0194,-369.0514"/>
</g>
<!-- CONTAINS&#45;&gt;MUSIC -->
<g id="edge9" class="edge">
<title>CONTAINS:IdMusic&#45;&gt;MUSIC:IdMusic</title>
<path fill="none" stroke="#000000" d="M75.5,-284.5C141.2044,-284.5 75.0858,-155.8193 126.372,-141.7449"/>
<polygon fill="#000000" stroke="#000000" points="127.0017,-145.1939 136.5,-140.5 126.1477,-138.2462 127.0017,-145.1939"/>
</g>
<!-- GENRE -->
<g id="node9" class="node">
<title>GENRE</title>
<polygon fill="#ffffff" stroke="transparent" points="199,-59 128,-59 128,0 199,0 199,-59"/>
<polygon fill="none" stroke="#000000" points="136.5,-37.5 136.5,-54.5 191.5,-54.5 191.5,-37.5 136.5,-37.5"/>
<text text-anchor="start" x="139.5" y="-44.5" font-family="Courier,monospace" font-weight="bold" font-size="10.00" fill="#000000">GENRE</text>
<polygon fill="none" stroke="#000000" points="136.5,-20.5 136.5,-37.5 191.5,-37.5 191.5,-20.5 136.5,-20.5"/>
<text text-anchor="start" x="139.5" y="-27.5" font-family="Courier,monospace" text-decoration="underline" font-size="10.00" fill="#000000">IdArtist</text>
<polygon fill="none" stroke="#000000" points="136.5,-3.5 136.5,-20.5 191.5,-20.5 191.5,-3.5 136.5,-3.5"/>
<text text-anchor="start" x="139.5" y="-9.5" font-family="Courier,monospace" font-size="10.00" fill="#000000">Type</text>
</g>
<!-- GENRE&#45;&gt;ARTIST -->
<g id="edge10" class="edge">
<title>GENRE:IdArtist&#45;&gt;ARTIST:IdArtist</title>
<path fill="none" stroke="#000000" d="M191.5,-28.5C221.0363,-28.5 222.3227,-59.1645 245.4587,-66.112"/>
<polygon fill="#000000" stroke="#000000" points="245.1149,-69.5977 255.5,-67.5 246.0735,-62.6636 245.1149,-69.5977"/>
</g>
</g>
</svg>
