<?xml version="1.0" encoding="UTF-8" standalone="no"?>
<!DOCTYPE svg PUBLIC "-//W3C//DTD SVG 1.1//EN"
 "http://www.w3.org/Graphics/SVG/1.1/DTD/svg11.dtd">
<!-- Generated by graphviz version 2.40.1 (20161225.0304)
 -->
<!-- Title: %3 Pages: 1 -->
<svg width="631pt" height="213pt"
 viewBox="0.00 0.00 630.71 213.00" xmlns="http://www.w3.org/2000/svg" xmlns:xlink="http://www.w3.org/1999/xlink">
<g id="graph0" class="graph" transform="scale(1 1) rotate(0) translate(4 209)">
<title>%3</title>
<polygon fill="#ffffff" stroke="transparent" points="-4,4 -4,-209 626.7133,-209 626.7133,4 -4,4"/>
<!-- USER -->
<g id="node1" class="node">
<title>USER</title>
<polygon fill="#ffffff" stroke="#000000" points="54,-119 0,-119 0,-83 54,-83 54,-119"/>
<text text-anchor="middle" x="27" y="-98.5" font-family="Courier,monospace" font-size="10.00" fill="#000000">USER</text>
</g>
<!-- LISTENS -->
<g id="node5" class="node">
<title>LISTENS</title>
<polygon fill="#ffffff" stroke="#000000" points="146.1172,-205 96.8825,-187 146.1172,-169 195.3519,-187 146.1172,-205"/>
<text text-anchor="middle" x="146.1172" y="-184.5" font-family="Courier,monospace" font-size="10.00" fill="#000000">LISTENS</text>
</g>
<!-- USER&#45;&#45;LISTENS -->
<g id="edge1" class="edge">
<title>USER&#45;&#45;LISTENS</title>
<path fill="none" stroke="#000000" d="M46.3802,-119.1392C59.9876,-131.4137 78.9159,-147.5888 97,-160 105.8253,-166.0569 116.135,-171.8936 125.0239,-176.5812"/>
<text text-anchor="middle" x="75.5" y="-149" font-family="Courier,monospace" font-size="10.00" fill="#000000">M</text>
</g>
<!-- CREATS -->
<g id="node6" class="node">
<title>CREATS</title>
<polygon fill="#ffffff" stroke="#000000" points="146.1172,-151 101.8724,-133 146.1172,-115 190.362,-133 146.1172,-151"/>
<text text-anchor="middle" x="146.1172" y="-130.5" font-family="Courier,monospace" font-size="10.00" fill="#000000">CREATS</text>
</g>
<!-- USER&#45;&#45;CREATS -->
<g id="edge3" class="edge">
<title>USER&#45;&#45;CREATS</title>
<path fill="none" stroke="#000000" d="M54.0295,-108.2613C73.5238,-113.4983 99.725,-120.5371 119.1946,-125.7674"/>
<text text-anchor="middle" x="75.5" y="-117" font-family="Courier,monospace" font-size="10.00" fill="#000000">1</text>
</g>
<!-- FRIENDS -->
<g id="node7" class="node">
<title>FRIENDS</title>
<polygon fill="#ffffff" stroke="#000000" points="146.1172,-97 96.8825,-79 146.1172,-61 195.3519,-79 146.1172,-97"/>
<text text-anchor="middle" x="146.1172" y="-76.5" font-family="Courier,monospace" font-size="10.00" fill="#000000">FRIENDS</text>
</g>
<!-- USER&#45;&#45;FRIENDS -->
<g id="edge5" class="edge">
<title>USER&#45;&#45;FRIENDS</title>
<path fill="none" stroke="#000000" d="M54.0295,-96.0079C71.6018,-92.7624 94.6237,-88.5104 113.2526,-85.0698"/>
<text text-anchor="middle" x="75.5" y="-95" font-family="Courier,monospace" font-size="10.00" fill="#000000">M</text>
</g>
<!-- HEARS -->
<g id="node10" class="node">
<title>HEARS</title>
<polygon fill="#ffffff" stroke="#000000" points="252.3617,-55 213.1067,-37 252.3617,-19 291.6167,-37 252.3617,-55"/>
<text text-anchor="middle" x="252.3617" y="-34.5" font-family="Courier,monospace" font-size="10.00" fill="#000000">HEARS</text>
</g>
<!-- USER&#45;&#45;HEARS -->
<g id="edge11" class="edge">
<title>USER&#45;&#45;HEARS</title>
<path fill="none" stroke="#000000" d="M42.5477,-82.9295C50.587,-74.5838 61.0067,-65.1777 72,-59 118.3379,-32.9606 181.8146,-31.6685 219.7935,-33.8273"/>
<text text-anchor="middle" x="75.5" y="-62" font-family="Courier,monospace" font-size="10.00" fill="#000000">M</text>
</g>
<!-- PLAYLIST -->
<g id="node2" class="node">
<title>PLAYLIST</title>
<polygon fill="#ffffff" stroke="#000000" points="374.489,-151 309.489,-151 309.489,-115 374.489,-115 374.489,-151"/>
<text text-anchor="middle" x="341.989" y="-130.5" font-family="Courier,monospace" font-size="10.00" fill="#000000">PLAYLIST</text>
</g>
<!-- CONTAINS -->
<g id="node8" class="node">
<title>CONTAINS</title>
<polygon fill="#ffffff" stroke="#000000" points="471.6011,-141 417.3765,-123 471.6011,-105 525.8257,-123 471.6011,-141"/>
<text text-anchor="middle" x="471.6011" y="-120.5" font-family="Courier,monospace" font-size="10.00" fill="#000000">CONTAINS</text>
</g>
<!-- PLAYLIST&#45;&#45;CONTAINS -->
<g id="edge7" class="edge">
<title>PLAYLIST&#45;&#45;CONTAINS</title>
<path fill="none" stroke="#000000" d="M374.5417,-128.4825C390.4403,-127.2559 409.7871,-125.7632 427.0008,-124.4351"/>
<path fill="none" stroke="transparent" d="M374.6956,-130.4766C390.5942,-129.25 409.941,-127.7573 427.1547,-126.4292"/>
<path fill="none" stroke="#000000" d="M374.8494,-132.4707C390.748,-131.244 410.0948,-129.7514 427.3085,-128.4233"/>
<text text-anchor="middle" x="395.989" y="-131" font-family="Courier,monospace" font-size="10.00" fill="#000000">M</text>
</g>
<!-- MUSIC -->
<g id="node3" class="node">
<title>MUSIC</title>
<polygon fill="#ffffff" stroke="#000000" points="622.7133,-82 568.7133,-82 568.7133,-46 622.7133,-46 622.7133,-82"/>
<text text-anchor="middle" x="595.7133" y="-61.5" font-family="Courier,monospace" font-size="10.00" fill="#000000">MUSIC</text>
</g>
<!-- ARTIST -->
<g id="node4" class="node">
<title>ARTIST</title>
<polygon fill="#ffffff" stroke="#000000" points="368.989,-36 314.989,-36 314.989,0 368.989,0 368.989,-36"/>
<text text-anchor="middle" x="341.989" y="-15.5" font-family="Courier,monospace" font-size="10.00" fill="#000000">ARTIST</text>
</g>
<!-- PRODUCES -->
<g id="node9" class="node">
<title>PRODUCES</title>
<polygon fill="#ffffff" stroke="#000000" points="471.6011,-36 417.3765,-18 471.6011,0 525.8257,-18 471.6011,-36"/>
<text text-anchor="middle" x="471.6011" y="-15.5" font-family="Courier,monospace" font-size="10.00" fill="#000000">PRODUCES</text>
</g>
<!-- ARTIST&#45;&#45;PRODUCES -->
<g id="edge9" class="edge">
<title>ARTIST&#45;&#45;PRODUCES</title>
<path fill="none" stroke="#000000" d="M369.1599,-16C383.1897,-16 400.8206,-16 417.4824,-16"/>
<path fill="none" stroke="transparent" d="M369.1599,-18C383.1897,-18 400.8206,-18 417.4824,-18"/>
<path fill="none" stroke="#000000" d="M369.1599,-20C383.1897,-20 400.8206,-20 417.4824,-20"/>
<text text-anchor="middle" x="395.989" y="-21" font-family="Courier,monospace" font-size="10.00" fill="#000000">1</text>
</g>
<!-- LISTENS&#45;&#45;PLAYLIST -->
<g id="edge2" class="edge">
<title>LISTENS&#45;&#45;PLAYLIST</title>
<path fill="none" stroke="#000000" d="M175.1403,-179.4568C204.5282,-171.7618 251.2557,-159.3699 291.489,-148 297.2978,-146.3584 303.468,-144.5663 309.4273,-142.8103"/>
<text text-anchor="middle" x="252.3617" y="-171" font-family="Courier,monospace" font-size="10.00" fill="#000000">N</text>
</g>
<!-- CREATS&#45;&#45;PLAYLIST -->
<g id="edge4" class="edge">
<title>CREATS&#45;&#45;PLAYLIST</title>
<path fill="none" stroke="#000000" d="M190.5635,-131C226.6825,-131 276.8033,-131 309.3147,-131"/>
<path fill="none" stroke="transparent" d="M190.5635,-133C226.6825,-133 276.8033,-133 309.3147,-133"/>
<path fill="none" stroke="#000000" d="M190.5635,-135C226.6825,-135 276.8033,-135 309.3147,-135"/>
<text text-anchor="middle" x="252.3617" y="-136" font-family="Courier,monospace" font-size="10.00" fill="#000000">N</text>
</g>
<!-- FRIENDS&#45;&#45;USER -->
<g id="edge6" class="edge">
<title>FRIENDS&#45;&#45;USER</title>
<path fill="none" stroke="#000000" d="M111.7272,-73.4721C99.0649,-72.512 84.7157,-72.705 72,-76 65.944,-77.5693 59.8353,-80.1495 54.1555,-83.0706"/>
<text text-anchor="middle" x="75.5" y="-79" font-family="Courier,monospace" font-size="10.00" fill="#000000">N</text>
</g>
<!-- CONTAINS&#45;&#45;MUSIC -->
<g id="edge8" class="edge">
<title>CONTAINS&#45;&#45;MUSIC</title>
<path fill="none" stroke="#000000" d="M494.0769,-112.3155C515.0334,-102.3533 546.3256,-87.4778 568.6465,-76.8669"/>
<text text-anchor="middle" x="547.2133" y="-91" font-family="Courier,monospace" font-size="10.00" fill="#000000">N</text>
</g>
<!-- PRODUCES&#45;&#45;MUSIC -->
<g id="edge10" class="edge">
<title>PRODUCES&#45;&#45;MUSIC</title>
<path fill="none" stroke="#000000" d="M505.7712,-23.0526C520.1142,-26.5303 536.7595,-31.2296 551.4613,-37.1451 557.5628,-39.6112 563.7334,-42.6415 569.5863,-45.7883"/>
<path fill="none" stroke="transparent" d="M505.3001,-24.9963C519.5708,-28.4551 536.2161,-33.1544 550.7133,-39 556.6812,-41.4064 562.8517,-44.4367 568.6388,-47.5497"/>
<path fill="none" stroke="#000000" d="M504.829,-26.94C519.0274,-30.3799 535.6727,-35.0792 549.9654,-40.8549 555.7996,-43.2016 561.9701,-46.2319 567.6914,-49.311"/>
<text text-anchor="middle" x="547.2133" y="-42" font-family="Courier,monospace" font-size="10.00" fill="#000000">N</text>
</g>
<!-- HEARS&#45;&#45;MUSIC -->
<g id="edge12" class="edge">
<title>HEARS&#45;&#45;MUSIC</title>
<path fill="none" stroke="#000000" d="M281.9619,-41.5632C290.8008,-42.8128 300.5232,-44.0759 309.489,-45 404.3555,-54.778 517.4565,-60.5591 568.4267,-62.8515"/>
<text text-anchor="middle" x="395.989" y="-55" font-family="Courier,monospace" font-size="10.00" fill="#000000">N</text>
</g>
</g>
</svg>
